<svg xmlns="http://www.w3.org/2000/svg" width="128" height="128" viewBox="0 0 128 128" role="img" aria-label="Sonic Selection symbol">
  <rect width="128" height="128" rx="28" fill="none"/>
  <g fill="none" stroke="#D4AF7A" stroke-width="9" stroke-linecap="round" stroke-linejoin="round">
    <path d="M98 25H44C28 25 20 34 20 45.5S29 66 44 66h40c9.5 0 15 5 15 12.5S93.5 91 84 91H30"/>
    <path d="M30 37h54c16 0 24 9 24 20.5S99 78 84 78H44c-9.5 0-15 5-15 12.5S34.5 103 44 103h54"/>
    <path d="M40 51h48" opacity=".55"/>
    <path d="M40 78h48" opacity=".55"/>
  </g>
</svg>