<svg xmlns="http://www.w3.org/2000/svg" width="1600" height="1050" viewBox="0 0 1600 1050">
  <rect width="1600" height="1050" fill="#0B0B0D"/>
  <text x="70" y="90" fill="#F2F2F4" font-family="Arial Black, Impact, sans-serif" font-size="60" letter-spacing="4">SONIC SELECTION</text>
  <text x="74" y="128" fill="#C6FF00" font-family="Inter, Arial, sans-serif" font-size="18" letter-spacing="8">SOUNDS THAT INSPIRE. TOOLS THAT ELEVATE.</text>
  <g transform="translate(72 170)"><g fill="none" stroke="#F2F2F4" stroke-width="9" stroke-linecap="round" stroke-linejoin="round">
    <path d="M98 25H44C28 25 20 34 20 45.5S29 66 44 66h40c9.5 0 15 5 15 12.5S93.5 91 84 91H30"/>
    <path d="M30 37h54c16 0 24 9 24 20.5S99 78 84 78H44c-9.5 0-15 5-15 12.5S34.5 103 44 103h54"/>
    <path d="M40 51h48" opacity=".55"/>
    <path d="M40 78h48" opacity=".55"/>
  </g></g>
  <text x="245" y="240" fill="#F2F2F4" font-family="Arial Black, Impact, sans-serif" font-size="42" letter-spacing="3">LOGO / SYMBOL / PLAYER / TOKENS</text>
  <text x="245" y="286" fill="#A8A8AE" font-family="Inter, Arial, sans-serif" font-size="24">Corporate Design starter kit for Shopify Hydrogen and Claude implementation.</text>
  <g><rect x="72" y="365" width="220" height="120" rx="16" fill="#0B0B0D" stroke="#2A2A31"/><text x="72" y="525" fill="#A8A8AE" font-family="Inter, Arial" font-size="18">#0B0B0D Jet Black</text><rect x="322" y="365" width="220" height="120" rx="16" fill="#16161A" stroke="#2A2A31"/><text x="322" y="525" fill="#A8A8AE" font-family="Inter, Arial" font-size="18">#16161A Graphite</text><rect x="572" y="365" width="220" height="120" rx="16" fill="#2A2A31" stroke="#2A2A31"/><text x="572" y="525" fill="#A8A8AE" font-family="Inter, Arial" font-size="18">#2A2A31 Dark Slate</text><rect x="822" y="365" width="220" height="120" rx="16" fill="#F2F2F4" stroke="#2A2A31"/><text x="822" y="525" fill="#A8A8AE" font-family="Inter, Arial" font-size="18">#F2F2F4 Light</text><rect x="1072" y="365" width="220" height="120" rx="16" fill="#C6FF00" stroke="#2A2A31"/><text x="1072" y="525" fill="#A8A8AE" font-family="Inter, Arial" font-size="18">#C6FF00 Electric Lime</text><rect x="1322" y="365" width="220" height="120" rx="16" fill="#D4AF7A" stroke="#2A2A31"/><text x="1322" y="525" fill="#A8A8AE" font-family="Inter, Arial" font-size="18">#D4AF7A Gold</text></g>
  <rect x="72" y="620" width="1456" height="300" rx="24" fill="#101014" stroke="#2A2A31"/>
  <text x="122" y="700" fill="#F2F2F4" font-family="Arial Black, Impact" font-size="52" letter-spacing="2">NEXT LEVEL</text>
  <text x="122" y="758" fill="#C6FF00" font-family="Arial Black, Impact" font-size="52" letter-spacing="2">SOUND PACKS</text>
  <text x="122" y="816" fill="#F2F2F4" font-family="Arial Black, Impact" font-size="52" letter-spacing="2">FOR PRODUCERS.</text>
  <rect x="122" y="850" width="190" height="48" rx="6" fill="#C6FF00"/>
  <text x="151" y="881" fill="#0B0B0D" font-family="Inter, Arial" font-size="16" font-weight="800">BROWSE SOUNDS →</text>
  <rect x="0" y="952" width="1600" height="98" fill="rgba(11,11,13,.96)" stroke="#2A2A31"/>
  <rect x="72" y="975" width="52" height="52" rx="6" fill="#111" stroke="#2A2A31"/>
  <text x="144" y="994" fill="#F2F2F4" font-family="Inter, Arial" font-size="20" font-weight="800">DARK TRAP VOL. 5</text>
  <text x="144" y="1024" fill="#A8A8AE" font-family="Inter, Arial" font-size="16">808 Mob – Hard 808</text>
  <circle cx="505" cy="1001" r="30" fill="none" stroke="#F2F2F4" opacity=".6"/>
  <text x="495" y="1012" fill="#F2F2F4" font-family="Inter, Arial" font-size="28">Ⅱ</text>
  <rect x="650" y="992" width="600" height="18" rx="9" fill="#2A2A31"/>
  <rect x="650" y="992" width="218" height="18" rx="9" fill="#C6FF00"/>
</svg>